<?xml version="1.0" encoding="utf-8"?>
<!-- Generator: Adobe Illustrator 21.0.2, SVG Export Plug-In . SVG Version: 6.00 Build 0)  -->
<svg version="1.1" id="Layer_1" xmlns="http://www.w3.org/2000/svg" xmlns:xlink="http://www.w3.org/1999/xlink" x="0px" y="0px"
	 viewBox="0 0 223.9 103.3" style="enable-background:new 0 0 223.9 103.3;" xml:space="preserve">
<style type="text/css">
	.st0{fill:none;stroke:#999999;stroke-width:2;stroke-miterlimit:10;}
	.st1{fill:none;stroke:#999999;stroke-miterlimit:10;}
</style>
<g>
	<path class="st1" d="M49.1,30.8h0.7c0,3.4-0.8,6.6-2.3,9.9c-1.5,3.2-3.6,6.2-6.1,8.8c-2.5,2.7-5.2,4.8-8.1,6.3
		c-2.9,1.5-5.6,2.3-8.2,2.3c-5.1,0-7.6-2.6-7.6-7.9c0-3.4,0.9-6.7,2.8-10c1.9-3.3,4.5-6.3,7.8-8.9s7-4.7,11.1-6.2
		c4.1-1.5,8.3-2.2,12.5-2.2c4.1,0,7.5,0.7,10.1,2.1c2.6,1.4,4.8,3.7,6.6,6.8c1.3-1.2,2.9-2.3,4.7-3.3c1.8-1.1,3.5-1.9,5.2-2.6
		l0.4,0.5c-3.2,1.3-6.5,3.3-10,6.1c0.7,1.7,1.1,3,1.2,4.1c0.2,1,0.3,2.3,0.3,3.9c0,3.3-0.9,7.2-2.6,11.6c-1.8,4.4-4.3,8.7-7.6,12.8
		c-3.3,4.1-7.4,7.5-12.1,10.1c-4.7,2.6-9.9,4-15.5,4c-4,0-7.4-0.5-10.4-1.6c-4,1-8.1,1.6-12.3,1.6c-5.1,0-7.7-0.8-7.7-2.5
		c0-0.9,0.6-1.7,1.7-2.2c1.2-0.5,2.7-0.8,4.8-0.8c2.3,0,4.4,0.2,6.4,0.7c2,0.5,4.3,1.3,7.1,2.4c3-0.9,5.7-1.9,8-3.1
		c2.3-1.2,4.4-2.6,6.4-4.3c2-1.7,3.8-3.6,5.5-5.7s3.8-4.9,6.1-8.4c2.4-3.6,4.9-6.9,7.4-10.1c2.6-3.1,4.9-5.7,7-7.9
		c2.1-2.1,3.9-3.8,5.3-5c-1.7-3-3.8-5.2-6.3-6.5c-2.5-1.4-5.7-2.1-9.5-2.1c-4.6,0-9,1-13.1,2.9c-4.2,1.9-7.7,4.4-10.7,7.3
		c-3,3-5.4,6.1-7,9.3c-1.7,3.2-2.5,5.9-2.5,8.2c0,1.9,0.6,3.4,1.7,4.5c1.1,1.1,2.6,1.6,4.5,1.6c2.3,0,4.9-0.8,7.7-2.3
		c2.8-1.5,5.5-3.5,8-6c2.5-2.5,4.5-5.4,6.1-8.7C48.3,37.1,49.1,33.9,49.1,30.8z M20.9,76.8c-2.7-0.9-4.9-1.6-6.6-2.1
		c-1.7-0.4-3.6-0.6-5.6-0.6c-1.8,0-3.2,0.2-4.3,0.6c-1.1,0.4-1.6,1-1.6,1.7c0,1.2,2,1.8,6,1.8C13.2,78.2,17.2,77.7,20.9,76.8z
		 M68.2,33c-2.4,1.8-4.6,4.1-6.5,6.7c-1.9,2.6-4.1,6-6.4,10.2c-1.6,2.9-3.2,5.5-4.7,7.8c-1.5,2.3-3.5,4.7-5.9,7.2
		c-2.4,2.5-5.4,4.8-8.8,6.9c-3.5,2.1-7.6,3.8-12.5,5.1c3.4,0.9,6.4,1.3,9.1,1.3c5.4,0,10.5-1.3,15.1-3.9c4.6-2.6,8.6-6,11.8-10
		c3.3-4.1,5.8-8.3,7.5-12.6c1.8-4.4,2.6-8.2,2.6-11.4C69.6,37.9,69.1,35.5,68.2,33z"/>
	<path class="st1" d="M88.6,64.3v0.8c-3.6,3.6-7,6.4-10,8.3s-6.1,2.9-9.2,2.9c-2.7,0-4.1-1.6-4.1-4.7c0-2.6,1-4.9,3-6.9
		c2-2,4.3-3.5,6.9-4.5c2.7-1.1,4.8-1.6,6.5-1.6c0.9,0,1.7,0.2,2.2,0.7s0.8,1,0.8,1.7c0,1.1-0.6,2.1-1.8,3.1c-1.2,0.9-2.9,1.7-5,2.3
		c-2.1,0.6-4.7,1-7.6,1c-2.5,2.8-3.7,4.9-3.7,6.4c0,0.5,0.3,1,0.8,1.3s1.2,0.5,2,0.5C74.6,75.6,81,71.8,88.6,64.3z M71.3,66.5
		c2.7,0,5-0.3,6.8-1s3.3-1.5,4.2-2.4c1-0.9,1.4-1.7,1.4-2.3c0-0.9-0.6-1.4-1.7-1.4c-1.5,0-3.2,0.6-5.1,1.9
		C75,62.5,73.1,64.3,71.3,66.5z"/>
	<path class="st1" d="M87.4,65.5l10.2-8.8c0.8-0.9,1.5-1.8,2.1-2.6c0.7-0.8,1.1-1.2,1.4-1.2c0.3,0,0.5,0.1,0.7,0.2
		c0.2,0.1,0.3,0.4,0.3,0.7c0,0.6-0.9,1.4-2.7,2.3c1,1.6,1.8,2.9,2.2,4.1c0.5,1.2,0.7,2.7,0.8,4.4c-0.1,1.1-0.2,2-0.4,2.8
		c1.2,0.3,2.2,0.3,3.2-0.1c1-0.3,2.3-1.4,4-3.1v0.8c-1.3,1.6-2.5,2.6-3.6,3c-1.1,0.4-2.4,0.4-3.9,0c-0.8,1.8-2.1,3.3-3.8,4.5
		c-1.8,1.3-3.6,2.2-5.4,2.8c-1.9,0.6-3.5,0.9-4.8,0.9c-1.3,0-2.3-0.3-3.1-0.8c-0.8-0.5-1.2-1.2-1.2-2.1c0-0.8,0.2-1.5,0.7-2
		c0.5-0.5,1.2-0.8,2.1-0.8c0.6,0,1.1,0.2,1.4,0.5c0.4,0.3,0.6,0.7,0.6,1.2c0,0.4-0.2,0.8-0.6,1.1c-0.4,0.3-0.8,0.5-1.3,0.5
		c-0.6,0-1.1-0.5-1.4-1.5c-0.4,0.3-0.6,0.7-0.6,1.3c0,0.4,0.3,0.7,1,1.2c0.7,0.4,1.4,0.6,2.3,0.6c1.7,0,3.5-0.7,5.5-2.2
		c1.9-1.5,3.5-3.3,4.8-5.6c1.3-2.2,1.9-4.4,1.9-6.5c0-1.5-0.5-3-1.4-4.6l-11.2,9.6V65.5z"/>
	<path class="st1" d="M108.3,66.2l-0.1-0.8c2.5-2.2,5.4-4.4,8.7-6.4h4.4l-11.5,12.9c-0.8,0.9-1.3,1.8-1.6,2.5
		c-0.2,0.8,0,1.2,0.6,1.2c1.6,0,4.1-1.2,7.3-3.6c3.2-2.4,6.2-4.9,8.9-7.6v0.8c-3.2,3-6.2,5.6-9.1,7.8c-2.9,2.2-5.3,3.3-7.2,3.3
		c-1.1,0-1.6-0.6-1.6-1.7c0-3.4,2.6-7.7,7.9-13c0.3-0.3,0.6-0.6,0.8-0.9c0.2-0.3,0.5-0.5,0.7-0.8C113.6,61.7,110.9,63.8,108.3,66.2z
		 M125.2,48.7c0.7,0,1.1,0.4,1.1,1.3c0,0.5-0.1,0.9-0.4,1.3c-0.3,0.3-0.7,0.5-1.1,0.5c-0.9,0-1.3-0.4-1.3-1.2c0-0.5,0.2-0.9,0.5-1.3
		C124.3,48.9,124.7,48.7,125.2,48.7z"/>
	<path class="st1" d="M124.2,82.1l7.3-9.2c-0.6,0.3-1,0.6-1.4,0.9c-2.3,1.6-4.2,2.4-5.5,2.4c-2.3,0-3.4-1.5-3.4-4.5
		c0-1.8,0.6-3.5,1.7-5.1c1.1-1.6,2.6-3,4.3-4.1c1.8-1.2,3.6-2.1,5.5-2.7c1.9-0.6,3.6-1,5.2-1c2,0,2.9,0.7,2.9,2.1
		c0,0.4-0.1,1-0.4,1.8l3.4-3.9h4.1l-18.2,20.7c3.1-1.5,6.2-3.4,9.5-5.8s7.2-5.5,11.8-9.4v0.8c-3.2,2.7-5.9,5-8.1,6.8
		c-2.2,1.8-4.6,3.4-6.9,4.9c-2.4,1.5-4.8,2.8-7.4,4c-4.2,4.6-7.7,8.2-10.5,11.1c-2.8,2.8-5.2,5-7,6.5c-1.9,1.5-3.4,2.5-4.7,3.1
		s-2.5,0.9-3.6,0.9c-1,0-1.8-0.3-2.3-0.8c-0.6-0.6-0.9-1.3-0.9-2.1c0-1.4,0.7-2.9,2.1-4.5c1.4-1.6,3.3-3.2,5.9-4.9s5.5-3.1,8.9-4.5
		l7.1-3L124.2,82.1z M123.3,83.2c-6.1,2.6-10.5,4.7-13.4,6.2c-2.9,1.5-5.3,3.3-7.2,5.3c-1.6,1.8-2.4,3.4-2.4,4.7
		c0,0.7,0.2,1.2,0.7,1.6s1.1,0.6,1.9,0.6c1.6,0,3.3-0.7,5.2-2c1.9-1.3,4.3-3.5,7-6.4C119.1,88.5,121.9,85.1,123.3,83.2z M140.1,61.2
		c0-0.5-0.2-0.9-0.7-1.2c-0.4-0.3-1-0.5-1.6-0.5c-1.8,0-3.9,0.9-6.3,2.8s-4.5,4-6.2,6.4c-1.8,2.4-2.6,4.2-2.6,5.3
		c0,0.4,0.2,0.7,0.6,1c0.4,0.3,0.8,0.5,1.3,0.5c1.3,0,3.2-0.9,5.7-2.8c2.5-1.9,4.8-3.9,6.8-6.3C139.1,64.1,140.1,62.4,140.1,61.2z"
		/>
	<path class="st1" d="M149.7,66.3v-0.8c4.9-4.6,8.4-6.9,10.4-6.9c1.1,0,1.7,0.7,1.7,2.1c0,1.1-0.3,2.2-1,3.3s-2.1,2.9-4.2,5.6
		c4-3.4,7.5-6,10.5-8c3-2,5.5-3,7.6-3c1.1,0,1.7,0.8,1.7,2.3c0,1.5-0.5,3-1.6,4.5c-1,1.5-2.8,3.1-5.1,4.8c-2.5,1.9-3.8,3.3-3.8,4.1
		c0,0.3,0.2,0.6,0.5,0.9c0.3,0.3,0.6,0.4,1,0.4c1.1,0,2.6-0.6,4.5-1.9c1.9-1.3,3.9-2.8,6.1-4.8c2.2-1.9,4-3.5,5.4-4.7v0.8
		c-2,1.9-3.9,3.6-5.8,5.2c-1.9,1.6-3.8,3-5.6,4.2c-1.9,1.2-3.4,1.8-4.7,1.8c-0.8,0-1.3-0.3-1.7-0.8c-0.3-0.5-0.5-1.1-0.5-1.6
		c0-1.2,0.5-2.6,1.5-4.2c1-1.5,2.3-3.1,4.1-4.5c2-1.8,3.4-3.2,4.1-4.2c0.8-1.1,0.5-1.6-0.7-1.6c-1.5,0-3.8,1-6.9,3.1
		c-3.1,2.1-6,4.2-8.7,6.5c-2.7,2.3-5.3,4.5-7.7,6.8h-3.8l6.5-7.3c4.8-5.3,7.1-8.2,7.1-8.7c0-0.3-0.2-0.5-0.6-0.5
		C158.4,59.3,155,61.6,149.7,66.3z"/>
	<path class="st1" d="M203.1,64.3v0.8c-3.6,3.6-7,6.4-10,8.3s-6.1,2.9-9.2,2.9c-2.7,0-4.1-1.6-4.1-4.7c0-2.6,1-4.9,3-6.9
		c2-2,4.3-3.5,6.9-4.5c2.7-1.1,4.8-1.6,6.5-1.6c0.9,0,1.7,0.2,2.2,0.7s0.8,1,0.8,1.7c0,1.1-0.6,2.1-1.8,3.1c-1.2,0.9-2.9,1.7-5,2.3
		c-2.1,0.6-4.7,1-7.6,1c-2.5,2.8-3.7,4.9-3.7,6.4c0,0.5,0.3,1,0.8,1.3s1.2,0.5,2,0.5C189.1,75.6,195.5,71.8,203.1,64.3z M185.8,66.5
		c2.7,0,5-0.3,6.8-1s3.3-1.5,4.2-2.4c1-0.9,1.4-1.7,1.4-2.3c0-0.9-0.6-1.4-1.7-1.4c-1.5,0-3.2,0.6-5.1,1.9
		C189.5,62.5,187.6,64.3,185.8,66.5z"/>
	<path class="st1" d="M201.9,65.5c1.5-1.2,2.9-2.4,4.4-3.6c1.4-1.2,2.9-2.3,4.3-3.4c-0.3-1-0.1-1.9,0.4-2.7c0.5-0.8,1.2-1.2,1.9-1.2
		c0.4,0,0.8,0.1,1.1,0.4c0.3,0.2,0.5,0.5,0.5,0.9c0,0.4-0.1,0.8-0.4,1c-0.3,0.3-0.6,0.4-1,0.4s-0.9-0.3-1.6-1
		c-0.2,0.3-0.3,0.6-0.3,1.1c0,0.4,0.1,0.8,0.5,1.1s0.7,0.5,1.1,0.5c0.3,0,0.7-0.1,1.3-0.2c0.7-0.1,1-0.2,1.2-0.2
		c0.3,0,0.5,0.2,0.7,0.7c0.2,0.5,0.3,1.1,0.3,1.8c0,0.6-0.4,1.4-1.2,2.3c-0.8,1-2.2,2.5-4.1,4.7c-2,2.2-3.3,3.7-4.1,4.6
		c-0.7,0.9-1.1,1.6-1.1,2.1s0.3,0.7,1,0.7c0.9,0,2.9-1.1,5.8-3.2c3-2.1,6.4-4.8,10.4-8.1v0.8c-8.8,7.5-14.3,11.2-16.6,11.2
		c-0.9,0-1.3-0.5-1.3-1.6c0-1.5,0.3-3,0.9-4.3c0.6-1.4,1.6-2.9,3.1-4.5l5.7-6.3c-0.7,0.3-1.5,0.4-2.3,0.3c-0.9,0-1.4-0.3-1.6-0.7
		c-4.3,3.6-7.3,6-8.9,7.2V65.5z"/>
</g>
</svg>
