<?xml version="1.0" encoding="utf-8"?>
<!-- Generator: Adobe Illustrator 21.0.2, SVG Export Plug-In . SVG Version: 6.00 Build 0)  -->
<!DOCTYPE svg PUBLIC "-//W3C//DTD SVG 1.1//EN" "http://www.w3.org/Graphics/SVG/1.1/DTD/svg11.dtd" [
	<!ENTITY ns_extend "http://ns.adobe.com/Extensibility/1.0/">
	<!ENTITY ns_ai "http://ns.adobe.com/AdobeIllustrator/10.0/">
	<!ENTITY ns_graphs "http://ns.adobe.com/Graphs/1.0/">
	<!ENTITY ns_vars "http://ns.adobe.com/Variables/1.0/">
	<!ENTITY ns_imrep "http://ns.adobe.com/ImageReplacement/1.0/">
	<!ENTITY ns_sfw "http://ns.adobe.com/SaveForWeb/1.0/">
	<!ENTITY ns_custom "http://ns.adobe.com/GenericCustomNamespace/1.0/">
	<!ENTITY ns_adobe_xpath "http://ns.adobe.com/XPath/1.0/">
]>
<svg version="1.1" id="Layer_1" xmlns:x="&ns_extend;" xmlns:i="&ns_ai;" xmlns:graph="&ns_graphs;"
	 xmlns="http://www.w3.org/2000/svg" xmlns:xlink="http://www.w3.org/1999/xlink" x="0px" y="0px" viewBox="0 0 930 400"
	 style="enable-background:new 0 0 930 400;" xml:space="preserve">
<style type="text/css">
	.st0{fill:none;stroke:#999999;stroke-width:1;stroke-miterlimit:10;}
</style>
<switch>
	<g i:extraneous="self">
		<g>
			<path class="st0" d="M727.6,230.2c0,0,16.3-43.2,67.9-38.9c11.9,1,25.5,5.3,34.5,13.3c10.3,9.2,9.4,27.8-5.6,32.3
				c-5.1,1.5-10.7,0.3-15.4-2.1c-5.5-2.7-10.7-6.6-15.6-10.3C772.2,208.2,745.5,214.5,727.6,230.2z"/>
			<path class="st0" d="M732.8,209.5c0,0,35.1-41.7,29.5-70.7c-4.8-24.9-30.3-26.7-42-19.5c-11.2,6.8-18.8,23.2-1.2,39.4
				C725.9,165.1,743.5,168.5,732.8,209.5z"/>
			<path class="st0" d="M753.8,193.3c0,0,24.3-36.5,15.9-62.2c-6.7-20.2-27.8-34.1-9.9-51.8c16.5-16.4,50.9-9.5,52.3,27.5
				C814.2,161.6,753.8,193.3,753.8,193.3z"/>
			<path class="st0" d="M774.7,187.1c0,0,28.8-22,58.7-22.6c50.6-0.9,60.1,52.5,25.7,49.4C836.1,211.9,828.3,170.5,774.7,187.1z"/>
			<path class="st0" d="M792.7,169.3c0,0,30.2-25.3,41-56.1c10.8-30.8,39-24.7,50.9-10.5c7.8,9.4,8.1,32.2-23,40.4
				C816.3,155,811,160.2,792.7,169.3z"/>
			<path class="st0" d="M864.6,164.3c0,0,23.9-0.8,29.8,5.9c5.6,6.2-0.4,13.2-8.4,8.6C879.5,175.1,884.6,169.5,864.6,164.3z"/>
			<path class="st0" d="M849.5,156.6c0,0,46.3,3.6,64.3-6c18.7-10.1-1.1-41.5-20.3-16.6C882.6,148.3,865.4,154.4,849.5,156.6z"/>
			<circle class="st0" cx="825.3" cy="99.2" r="7.8"/>
			<circle class="st0" cx="770.8" cy="223.8" r="2.8"/>
		</g>
		<g>
			<path class="st0" d="M696,163c0,0-13-53-65-53c-35,0-33,41-5,33C643.5,138,669,126,696,163z"/>
			<path class="st0" d="M693.4,141.8c0,0-24.6-63,0-76c19.8-10.5,32,10.1,24.2,19.3C711.6,92.3,692.3,91.7,693.4,141.8z"/>
			<path class="st0" d="M675.2,115.5c0,0-14.1-40.7-4.1-76.3c10.4-37.1-40.6-48.4-64.3-22.9c-20.8,22.3-11.3,42.3-4.2,49.6
				C617.8,81.6,645.4,68.7,675.2,115.5z"/>
			<path class="st0" d="M650,106c0,0-17.6-20.5-48.6-21.8c-17.4-0.7-22,21.8-3.6,21.8C613,106,625.3,94.4,650,106z"/>
			<circle class="st0" cx="688" cy="41" r="6"/>
		</g>
		<g>
			<path class="st0" d="M253,239c0,0-57.5-4.3-68.3-46.5c-9.6-37.3-67.5-16.4-56.8,20.6C136.9,243.8,162.5,259.1,253,239z"/>
			<path class="st0" d="M247,250c0,0-72.8,20.6-74,61c-1,34,38.2,32.6,48,12C230,304,198,294,247,250z"/>
			<path class="st0" d="M201.4,257.1c-42.7,8.3-110.5,28.7-122.8,76.4c-2.2,8.4-2,17.6,1.5,25.5c6.5,14.4,22.4,18.5,37,16.3
				c17.2-2.6,31.7-15.6,34.1-33.2c1-7.5-0.1-15.1,0-22.7C151.7,293.2,183.1,271.8,201.4,257.1z"/>
			<path class="st0" d="M165.2,308.9c0,0-20,64,7.6,71c16,4.1,22.1-17.9,12.2-26.9C177.4,346.2,165,344.9,165.2,308.9z"/>
			<path class="st0" d="M150.9,362.3c0,0,9,26.4-9.4,30.7c-10.5,2.5-11.6-9.8-7.1-12.3C138.3,378.5,148.2,375.2,150.9,362.3z"/>
			<path class="st0" d="M163.9,255.9c0,0-63.3,12.1-85-21.9c-7.5-11.8-0.9-26.9,10.3-33.6c4.5-2.7,10-4.2,15.1-2.8
				c9.2,2.5,11.6,11.1,12.8,19.4C121.4,245.6,138,250.7,163.9,255.9z"/>
			<path class="st0" d="M140.7,265.8c-16.1,5.6-16.9,6.3-20.4,7.8c-7.7,3.5-15.2,7.6-22.1,12.5c-9.3,6.5-17.3,14.5-26.4,21.3
				c-8.7,6.5-19.1,13.3-30.5,11.6c-6.6-1-12.8-4.2-17.7-8.7c-7-6.3-11.8-15.4-12.2-24.8c-0.3-9.3,3.6-18.4,9.6-25.6
				c10.7-12.7,26.8-21.3,43.5-15.7c12.3,4,19.7,16.7,32.2,20C110.2,267.8,117.3,268.7,140.7,265.8z"/>
			<circle class="st0" cx="48" cy="350" r="19"/>
			<circle class="st0" cx="227" cy="209" r="11"/>
			<circle class="st0" cx="168" cy="393" r="5"/>
		</g>
	</g>
</switch>
</svg>
