<?xml version="1.0" encoding="utf-8"?>
<!-- Generator: Adobe Illustrator 21.0.2, SVG Export Plug-In . SVG Version: 6.00 Build 0)  -->
<!DOCTYPE svg PUBLIC "-//W3C//DTD SVG 1.1//EN" "http://www.w3.org/Graphics/SVG/1.1/DTD/svg11.dtd" [
	<!ENTITY ns_extend "http://ns.adobe.com/Extensibility/1.0/">
	<!ENTITY ns_ai "http://ns.adobe.com/AdobeIllustrator/10.0/">
	<!ENTITY ns_graphs "http://ns.adobe.com/Graphs/1.0/">
	<!ENTITY ns_vars "http://ns.adobe.com/Variables/1.0/">
	<!ENTITY ns_imrep "http://ns.adobe.com/ImageReplacement/1.0/">
	<!ENTITY ns_sfw "http://ns.adobe.com/SaveForWeb/1.0/">
	<!ENTITY ns_custom "http://ns.adobe.com/GenericCustomNamespace/1.0/">
	<!ENTITY ns_adobe_xpath "http://ns.adobe.com/XPath/1.0/">
]>
<svg version="1.1" id="Layer_1" xmlns:x="&ns_extend;" xmlns:i="&ns_ai;" xmlns:graph="&ns_graphs;"
	 xmlns="http://www.w3.org/2000/svg" xmlns:xlink="http://www.w3.org/1999/xlink" x="0px" y="0px" viewBox="0 0 1366 768"
	 style="enable-background:new 0 0 1366 768;" xml:space="preserve">
<style type="text/css">
	.st0{fill:none;stroke:#999999;stroke-width:2;stroke-miterlimit:10;}
</style>
<switch>
	<g i:extraneous="self">
		<g>
			<path class="st0" d="M936.6,367.2c0,0,16.3-43.2,67.9-38.9c11.9,1,25.5,5.3,34.5,13.3c10.3,9.2,9.4,27.8-5.6,32.3
				c-5.1,1.5-10.7,0.3-15.4-2.1c-5.5-2.7-10.7-6.6-15.6-10.3C981.2,345.2,954.5,351.5,936.6,367.2z"/>
			<path class="st0" d="M941.8,346.5c0,0,35.1-41.7,29.5-70.7c-4.8-24.9-30.3-26.7-42-19.5c-11.2,6.8-18.8,23.2-1.2,39.4
				C934.9,302.1,952.5,305.5,941.8,346.5z"/>
			<path class="st0" d="M962.8,330.3c0,0,24.3-36.5,15.9-62.2c-6.7-20.2-27.8-34.1-9.9-51.8c16.5-16.4,50.9-9.5,52.3,27.5
				C1023.2,298.6,962.8,330.3,962.8,330.3z"/>
			<path class="st0" d="M983.7,324.1c0,0,28.8-22,58.7-22.6c50.6-0.9,60.1,52.5,25.7,49.4C1045.1,348.9,1037.3,307.5,983.7,324.1z"
				/>
			<path class="st0" d="M1001.7,306.3c0,0,30.2-25.3,41-56.1c10.8-30.8,39-24.7,50.9-10.5c7.8,9.4,8.1,32.2-23,40.4
				C1025.3,292,1020,297.2,1001.7,306.3z"/>
			<path class="st0" d="M1073.6,301.3c0,0,23.9-0.8,29.8,5.9c5.6,6.2-0.4,13.2-8.4,8.6C1088.5,312.1,1093.6,306.5,1073.6,301.3z"/>
			<path class="st0" d="M1058.5,293.6c0,0,46.3,3.6,64.3-6c18.7-10.1-1.1-41.5-20.3-16.6C1091.6,285.3,1074.4,291.4,1058.5,293.6z"
				/>
			<circle class="st0" cx="1034.3" cy="236.2" r="7.8"/>
			<circle class="st0" cx="979.8" cy="360.8" r="2.8"/>
		</g>
		<g>
			<path class="st0" d="M905,300c0,0-13-53-65-53c-35,0-33,41-5,33C852.5,275,878,263,905,300z"/>
			<path class="st0" d="M902.4,278.8c0,0-24.6-63,0-76c19.8-10.5,32,10.1,24.2,19.3C920.6,229.3,901.3,228.7,902.4,278.8z"/>
			<path class="st0" d="M884.2,252.5c0,0-14.1-40.7-4.1-76.3c10.4-37.1-40.6-48.4-64.3-22.9c-20.8,22.3-11.3,42.3-4.2,49.6
				C826.8,218.6,854.4,205.7,884.2,252.5z"/>
			<path class="st0" d="M859,243c0,0-17.6-20.5-48.6-21.8c-17.4-0.7-22,21.8-3.6,21.8C822,243,834.3,231.4,859,243z"/>
			<circle class="st0" cx="897" cy="178" r="6"/>
		</g>
		<g>
			<path class="st0" d="M462,376c0,0-57.5-4.3-68.3-46.5c-9.6-37.3-67.5-16.4-56.8,20.6C345.9,380.8,371.5,396.1,462,376z"/>
			<path class="st0" d="M456,387c0,0-72.8,20.6-74,61c-1,34,38.2,32.6,48,12C439,441,407,431,456,387z"/>
			<path class="st0" d="M410.4,394.1c-42.7,8.3-110.5,28.7-122.8,76.4c-2.2,8.4-2,17.6,1.5,25.5c6.5,14.4,22.4,18.5,37,16.3
				c17.2-2.6,31.7-15.6,34.1-33.2c1-7.5-0.1-15.1,0-22.7C360.7,430.2,392.1,408.8,410.4,394.1z"/>
			<path class="st0" d="M374.2,445.9c0,0-20,64,7.6,71c16,4.1,22.1-17.9,12.2-26.9C386.4,483.2,374,481.9,374.2,445.9z"/>
			<path class="st0" d="M359.9,499.3c0,0,9,26.4-9.4,30.7c-10.5,2.5-11.6-9.8-7.1-12.3C347.3,515.5,357.2,512.2,359.9,499.3z"/>
			<path class="st0" d="M372.9,392.9c0,0-63.3,12.1-85-21.9c-7.5-11.8-0.9-26.9,10.3-33.6c4.5-2.7,10-4.2,15.1-2.8
				c9.2,2.5,11.6,11.1,12.8,19.4C330.4,382.6,347,387.7,372.9,392.9z"/>
			<path class="st0" d="M349.7,402.8c-16.1,5.6-16.9,6.3-20.4,7.8c-7.7,3.5-15.2,7.6-22.1,12.5c-9.3,6.5-17.3,14.5-26.4,21.3
				c-8.7,6.5-19.1,13.3-30.5,11.6c-6.6-1-12.8-4.2-17.7-8.7c-7-6.3-11.8-15.4-12.2-24.8c-0.3-9.3,3.6-18.4,9.6-25.6
				c10.7-12.7,26.8-21.3,43.5-15.7c12.3,4,19.7,16.7,32.2,20C319.2,404.8,326.3,405.7,349.7,402.8z"/>
			<circle class="st0" cx="257" cy="487" r="19"/>
			<circle class="st0" cx="436" cy="346" r="11"/>
			<circle class="st0" cx="377" cy="530" r="5"/>
		</g>
	</g>
</switch>
</svg>
