<?xml version="1.0" encoding="utf-8"?>
<!-- Generator: Adobe Illustrator 21.0.2, SVG Export Plug-In . SVG Version: 6.00 Build 0)  -->
<!DOCTYPE svg PUBLIC "-//W3C//DTD SVG 1.1//EN" "http://www.w3.org/Graphics/SVG/1.1/DTD/svg11.dtd" [
	<!ENTITY ns_extend "http://ns.adobe.com/Extensibility/1.0/">
	<!ENTITY ns_ai "http://ns.adobe.com/AdobeIllustrator/10.0/">
	<!ENTITY ns_graphs "http://ns.adobe.com/Graphs/1.0/">
	<!ENTITY ns_vars "http://ns.adobe.com/Variables/1.0/">
	<!ENTITY ns_imrep "http://ns.adobe.com/ImageReplacement/1.0/">
	<!ENTITY ns_sfw "http://ns.adobe.com/SaveForWeb/1.0/">
	<!ENTITY ns_custom "http://ns.adobe.com/GenericCustomNamespace/1.0/">
	<!ENTITY ns_adobe_xpath "http://ns.adobe.com/XPath/1.0/">
]>
<svg version="1.1" id="Layer_1" xmlns:x="&ns_extend;" xmlns:i="&ns_ai;" xmlns:graph="&ns_graphs;"
	 xmlns="http://www.w3.org/2000/svg" xmlns:xlink="http://www.w3.org/1999/xlink" x="0px" y="0px" viewBox="0 0 50 50"
	 style="enable-background:new 0 0 50 50;" xml:space="preserve">
<style type="text/css">
	.st11{fill:#D1A454;}
</style>
<switch>
	<g i:extraneous="self">
		<g>
			<g>
				<g>
					<path class="st11" d="M11,13.5c9.3,0,18.7,0,28,0c1.9,0,1.9-3,0-3c-9.3,0-18.7,0-28,0C9.1,10.5,9.1,13.5,11,13.5L11,13.5z"/>
				</g>
			</g>
			<g>
				<g>
					<path class="st11" d="M11,26.5c9.3,0,18.7,0,28,0c1.9,0,1.9-3,0-3c-9.3,0-18.7,0-28,0C9.1,23.5,9.1,26.5,11,26.5L11,26.5z"/>
				</g>
			</g>
			<g>
				<g>
					<path class="st11" d="M11,39.5c9.3,0,18.7,0,28,0c1.9,0,1.9-3,0-3c-9.3,0-18.7,0-28,0C9.1,36.5,9.1,39.5,11,39.5L11,39.5z"/>
				</g>
			</g>
		</g>
		<rect x="-40.5" y="8" transform="matrix(-1 -1.224647e-16 1.224647e-16 -1 -51 46)" class="st11" width="30" height="30"/>
	</g>
</switch>
</svg>
