<?xml version="1.0" encoding="utf-8"?>
<!-- Generator: Adobe Illustrator 21.0.2, SVG Export Plug-In . SVG Version: 6.00 Build 0)  -->
<!DOCTYPE svg PUBLIC "-//W3C//DTD SVG 1.1//EN" "http://www.w3.org/Graphics/SVG/1.1/DTD/svg11.dtd" [
	<!ENTITY ns_extend "http://ns.adobe.com/Extensibility/1.0/">
	<!ENTITY ns_ai "http://ns.adobe.com/AdobeIllustrator/10.0/">
	<!ENTITY ns_graphs "http://ns.adobe.com/Graphs/1.0/">
	<!ENTITY ns_vars "http://ns.adobe.com/Variables/1.0/">
	<!ENTITY ns_imrep "http://ns.adobe.com/ImageReplacement/1.0/">
	<!ENTITY ns_sfw "http://ns.adobe.com/SaveForWeb/1.0/">
	<!ENTITY ns_custom "http://ns.adobe.com/GenericCustomNamespace/1.0/">
	<!ENTITY ns_adobe_xpath "http://ns.adobe.com/XPath/1.0/">
]>
<svg version="1.1" xmlns:x="&ns_extend;" xmlns:i="&ns_ai;" xmlns:graph="&ns_graphs;"
	 xmlns="http://www.w3.org/2000/svg" xmlns:xlink="http://www.w3.org/1999/xlink" x="0px" y="0px" viewBox="0 0 275 229"
	 style="enable-background:new 0 0 275 229;" xml:space="preserve">
<style type="text/css">
	.st0{display:none;opacity:0.4;}
	.st1{display:inline;fill:#CD9C43;}
	.st2{display:none;fill:none;stroke:#CD9C43;stroke-width:4;stroke-miterlimit:10;}
	.st3{fill:none;stroke:#CD9C43;stroke-width:4;stroke-miterlimit:10;}
</style>
<switch>
	<g i:extraneous="self">
		<g id="Base_Symbol" class="st0">
			<polygon class="st1" points="269.3,7.5 269.2,7.5 6.4,7.5 4,3.5 271.8,3.5 			"/>
			<polygon class="st1" points="137.9,227.4 135.9,224.1 135.9,3.5 139.8,3.5 139.8,224.2 			"/>
			<polygon class="st1" points="137.9,227.4 4,3.5 8.7,3.5 137.9,219.6 			"/>
			<polygon class="st1" points="137.9,227.4 137.9,219.6 267.1,3.5 271.7,3.5 			"/>
			<path class="st1" d="M137.9,194.9c-51.7,0-93.8-42.1-93.8-93.8S86.2,7.3,137.9,7.3s93.8,42.1,93.8,93.8S189.6,194.9,137.9,194.9z
				 M137.9,11.3c-49.5,0-89.8,40.3-89.8,89.8s40.3,89.8,89.8,89.8s89.8-40.3,89.8-89.8S187.4,11.3,137.9,11.3z"/>
		</g>
		<g id="Layer_2">
			<line class="st2" x1="4" y1="19.3" x2="271.7" y2="19.3"/>
			<line class="st2" x1="137.9" y1="19.3" x2="137.9" y2="227.4"/>
			<line class="st2" x1="8.1" y1="5.5" x2="137.9" y2="193.3"/>
			<line class="st2" x1="267.7" y1="5.5" x2="137.9" y2="193.3"/>
			<circle class="st3" cx="137.9" cy="101.1" r="92"/>
		</g>
	</g>
</switch>
</svg>
